<mxfile host="app.diagrams.net" modified="2023-12-07T15:51:08.190Z" agent="Mozilla/5.0 (Windows NT 10.0; Win64; x64) AppleWebKit/537.36 (KHTML, like Gecko) Chrome/118.0.0.0 Safari/537.36 OPR/104.0.0.0" etag="DTQuFa2NJQ6fXbfS4Lvn" version="22.1.7" type="github">
  <diagram name="Page-1" id="Tt5YNwq5r-jUnIZ_PTS4">
    <mxGraphModel dx="480" dy="562" grid="0" gridSize="10" guides="1" tooltips="1" connect="1" arrows="1" fold="1" page="1" pageScale="1" pageWidth="850" pageHeight="1100" math="0" shadow="0">
      <root>
        <mxCell id="0" />
        <mxCell id="1" parent="0" />
        <mxCell id="vbSwpc0aC2_-ruBdFhU0-1" value="Student" style="shape=umlActor;verticalLabelPosition=bottom;verticalAlign=top;html=1;outlineConnect=0;" vertex="1" parent="1">
          <mxGeometry x="392" y="535" width="30" height="60" as="geometry" />
        </mxCell>
        <mxCell id="vbSwpc0aC2_-ruBdFhU0-3" value="PS" style="shape=umlActor;verticalLabelPosition=bottom;verticalAlign=top;html=1;outlineConnect=0;" vertex="1" parent="1">
          <mxGeometry x="495" y="535" width="30" height="60" as="geometry" />
        </mxCell>
        <mxCell id="vbSwpc0aC2_-ruBdFhU0-4" value="ST" style="shape=umlActor;verticalLabelPosition=bottom;verticalAlign=top;html=1;outlineConnect=0;" vertex="1" parent="1">
          <mxGeometry x="441" y="535" width="30" height="60" as="geometry" />
        </mxCell>
        <mxCell id="vbSwpc0aC2_-ruBdFhU0-6" value="Check other parties currently booked meetings" style="ellipse;whiteSpace=wrap;html=1;" vertex="1" parent="1">
          <mxGeometry x="168" y="390" width="133" height="60" as="geometry" />
        </mxCell>
        <mxCell id="vbSwpc0aC2_-ruBdFhU0-7" value="Check room availability" style="ellipse;whiteSpace=wrap;html=1;" vertex="1" parent="1">
          <mxGeometry x="141" y="458" width="133" height="60" as="geometry" />
        </mxCell>
        <mxCell id="vbSwpc0aC2_-ruBdFhU0-8" value="Validate date/time inputs" style="ellipse;whiteSpace=wrap;html=1;" vertex="1" parent="1">
          <mxGeometry x="303" y="362" width="133" height="60" as="geometry" />
        </mxCell>
        <mxCell id="vbSwpc0aC2_-ruBdFhU0-9" value="Check booked meetings" style="ellipse;whiteSpace=wrap;html=1;" vertex="1" parent="1">
          <mxGeometry x="490" y="439" width="133" height="60" as="geometry" />
        </mxCell>
        <mxCell id="vbSwpc0aC2_-ruBdFhU0-10" value="Meeting file" style="shape=internalStorage;whiteSpace=wrap;html=1;backgroundOutline=1;" vertex="1" parent="1">
          <mxGeometry x="459" y="362" width="116.5" height="53" as="geometry" />
        </mxCell>
        <mxCell id="vbSwpc0aC2_-ruBdFhU0-11" value="frame" style="shape=umlFrame;whiteSpace=wrap;html=1;pointerEvents=0;" vertex="1" parent="1">
          <mxGeometry x="138" y="352" width="493" height="168" as="geometry" />
        </mxCell>
        <mxCell id="vbSwpc0aC2_-ruBdFhU0-12" value="" style="endArrow=none;html=1;rounded=0;exitX=0.25;exitY=0.1;exitDx=0;exitDy=0;exitPerimeter=0;entryX=0.63;entryY=1.01;entryDx=0;entryDy=0;entryPerimeter=0;" edge="1" parent="1" source="vbSwpc0aC2_-ruBdFhU0-1" target="vbSwpc0aC2_-ruBdFhU0-5">
          <mxGeometry width="50" height="50" relative="1" as="geometry">
            <mxPoint x="322" y="510" as="sourcePoint" />
            <mxPoint x="372" y="460" as="targetPoint" />
          </mxGeometry>
        </mxCell>
        <mxCell id="vbSwpc0aC2_-ruBdFhU0-13" value="" style="endArrow=none;html=1;rounded=0;exitX=0.25;exitY=0.1;exitDx=0;exitDy=0;exitPerimeter=0;entryX=0.654;entryY=1.05;entryDx=0;entryDy=0;entryPerimeter=0;" edge="1" parent="1" source="vbSwpc0aC2_-ruBdFhU0-4" target="vbSwpc0aC2_-ruBdFhU0-5">
          <mxGeometry width="50" height="50" relative="1" as="geometry">
            <mxPoint x="410" y="551" as="sourcePoint" />
            <mxPoint x="370" y="510" as="targetPoint" />
          </mxGeometry>
        </mxCell>
        <mxCell id="vbSwpc0aC2_-ruBdFhU0-14" value="" style="endArrow=none;html=1;rounded=0;exitX=0.25;exitY=0.1;exitDx=0;exitDy=0;exitPerimeter=0;entryX=0.63;entryY=1.023;entryDx=0;entryDy=0;entryPerimeter=0;" edge="1" parent="1" source="vbSwpc0aC2_-ruBdFhU0-3" target="vbSwpc0aC2_-ruBdFhU0-5">
          <mxGeometry width="50" height="50" relative="1" as="geometry">
            <mxPoint x="420" y="561" as="sourcePoint" />
            <mxPoint x="380" y="520" as="targetPoint" />
          </mxGeometry>
        </mxCell>
        <mxCell id="vbSwpc0aC2_-ruBdFhU0-15" value="" style="endArrow=none;html=1;rounded=0;entryX=1;entryY=0.5;entryDx=0;entryDy=0;" edge="1" parent="1" target="vbSwpc0aC2_-ruBdFhU0-7">
          <mxGeometry width="50" height="50" relative="1" as="geometry">
            <mxPoint x="297" y="488" as="sourcePoint" />
            <mxPoint x="390" y="530" as="targetPoint" />
          </mxGeometry>
        </mxCell>
        <mxCell id="vbSwpc0aC2_-ruBdFhU0-16" value="" style="endArrow=none;html=1;rounded=0;exitX=0;exitY=0;exitDx=0;exitDy=0;entryX=1;entryY=1;entryDx=0;entryDy=0;" edge="1" parent="1" source="vbSwpc0aC2_-ruBdFhU0-5" target="vbSwpc0aC2_-ruBdFhU0-6">
          <mxGeometry width="50" height="50" relative="1" as="geometry">
            <mxPoint x="440" y="581" as="sourcePoint" />
            <mxPoint x="400" y="540" as="targetPoint" />
          </mxGeometry>
        </mxCell>
        <mxCell id="vbSwpc0aC2_-ruBdFhU0-17" value="" style="endArrow=none;html=1;rounded=0;exitX=0.5;exitY=0;exitDx=0;exitDy=0;entryX=0.325;entryY=1;entryDx=0;entryDy=0;entryPerimeter=0;" edge="1" parent="1" source="vbSwpc0aC2_-ruBdFhU0-5" target="vbSwpc0aC2_-ruBdFhU0-8">
          <mxGeometry width="50" height="50" relative="1" as="geometry">
            <mxPoint x="450" y="591" as="sourcePoint" />
            <mxPoint x="410" y="550" as="targetPoint" />
          </mxGeometry>
        </mxCell>
        <mxCell id="vbSwpc0aC2_-ruBdFhU0-5" value="Book meeting" style="ellipse;whiteSpace=wrap;html=1;" vertex="1" parent="1">
          <mxGeometry x="276" y="439" width="133" height="60" as="geometry" />
        </mxCell>
        <mxCell id="vbSwpc0aC2_-ruBdFhU0-18" value="" style="endArrow=none;html=1;rounded=0;exitX=0.75;exitY=0.1;exitDx=0;exitDy=0;exitPerimeter=0;entryX=0;entryY=1;entryDx=0;entryDy=0;" edge="1" parent="1" source="vbSwpc0aC2_-ruBdFhU0-1" target="vbSwpc0aC2_-ruBdFhU0-9">
          <mxGeometry width="50" height="50" relative="1" as="geometry">
            <mxPoint x="460" y="601" as="sourcePoint" />
            <mxPoint x="420" y="560" as="targetPoint" />
          </mxGeometry>
        </mxCell>
        <mxCell id="vbSwpc0aC2_-ruBdFhU0-19" value="" style="endArrow=none;html=1;rounded=0;exitX=0;exitY=1;exitDx=0;exitDy=0;entryX=0.75;entryY=0.1;entryDx=0;entryDy=0;entryPerimeter=0;" edge="1" parent="1" source="vbSwpc0aC2_-ruBdFhU0-9" target="vbSwpc0aC2_-ruBdFhU0-4">
          <mxGeometry width="50" height="50" relative="1" as="geometry">
            <mxPoint x="470" y="611" as="sourcePoint" />
            <mxPoint x="430" y="570" as="targetPoint" />
          </mxGeometry>
        </mxCell>
        <mxCell id="vbSwpc0aC2_-ruBdFhU0-20" value="" style="endArrow=none;html=1;rounded=0;exitX=0;exitY=1;exitDx=0;exitDy=0;entryX=0.5;entryY=0;entryDx=0;entryDy=0;entryPerimeter=0;" edge="1" parent="1" source="vbSwpc0aC2_-ruBdFhU0-9" target="vbSwpc0aC2_-ruBdFhU0-3">
          <mxGeometry width="50" height="50" relative="1" as="geometry">
            <mxPoint x="480" y="621" as="sourcePoint" />
            <mxPoint x="440" y="580" as="targetPoint" />
          </mxGeometry>
        </mxCell>
        <mxCell id="vbSwpc0aC2_-ruBdFhU0-21" value="" style="endArrow=none;html=1;rounded=0;exitX=0;exitY=1;exitDx=0;exitDy=0;entryX=1;entryY=0;entryDx=0;entryDy=0;" edge="1" parent="1" source="vbSwpc0aC2_-ruBdFhU0-10" target="vbSwpc0aC2_-ruBdFhU0-5">
          <mxGeometry width="50" height="50" relative="1" as="geometry">
            <mxPoint x="490" y="631" as="sourcePoint" />
            <mxPoint x="450" y="590" as="targetPoint" />
          </mxGeometry>
        </mxCell>
        <mxCell id="vbSwpc0aC2_-ruBdFhU0-22" value="" style="endArrow=none;html=1;rounded=0;exitX=0.417;exitY=-0.003;exitDx=0;exitDy=0;exitPerimeter=0;entryX=0.75;entryY=1;entryDx=0;entryDy=0;" edge="1" parent="1" source="vbSwpc0aC2_-ruBdFhU0-9" target="vbSwpc0aC2_-ruBdFhU0-10">
          <mxGeometry width="50" height="50" relative="1" as="geometry">
            <mxPoint x="500" y="641" as="sourcePoint" />
            <mxPoint x="460" y="600" as="targetPoint" />
          </mxGeometry>
        </mxCell>
      </root>
    </mxGraphModel>
  </diagram>
</mxfile>
